<svg width="63" height="63" viewBox="0 0 63 63" fill="none" xmlns="http://www.w3.org/2000/svg">
<path d="M31.5662 62.6537C48.6947 62.6537 62.5801 48.7555 62.5801 31.6113C62.5801 14.467 48.6947 0.568848 31.5662 0.568848C14.4377 0.568848 0.552246 14.467 0.552246 31.6113C0.552246 48.7555 14.4377 62.6537 31.5662 62.6537Z" fill="url(#paint0_linear)"/>
<path d="M39.6067 33.9509C39.6067 36.4803 38.4181 37.2301 35.7412 37.2301H23.5354V42.7388H35.7412C42.8829 42.8888 45.1203 38.4198 44.9705 34.2508C44.9705 33.9509 44.9705 26.3527 44.9705 26.3527H39.4669L39.6067 33.9509Z" fill="white"/>
<path d="M50.464 20.6939H44.9604V26.2026H50.464V20.6939Z" fill="white"/>
<path d="M12.668 42.5886H18.0217V37.23H12.668V42.5886Z" fill="white"/>
<path d="M27.401 26.2026H39.6069V20.6939H27.401C20.2593 20.544 18.0219 25.0129 18.1718 29.1819C18.1718 29.4818 18.1718 31.2714 18.1718 31.7113V37.2199H23.6754V31.8613C23.6754 31.8613 23.6754 29.7717 23.6754 29.6318C23.5255 26.9524 24.7242 26.2026 27.401 26.2026Z" fill="white"/>
<defs>
<linearGradient id="paint0_linear" x1="0.552246" y1="31.6135" x2="62.5801" y2="31.6135" gradientUnits="userSpaceOnUse">
<stop stop-color="#74AE95"/>
<stop offset="0.2255" stop-color="#7CB496"/>
<stop offset="1" stop-color="#94C69B"/>
</linearGradient>
</defs>
</svg>
