<svg width="350" height="422" viewBox="0 0 350 422" fill="none" xmlns="http://www.w3.org/2000/svg">
<g clip-path="url(#clip0)">
<path d="M292.343 30.0164L40.7054 92.8356L115.306 497.358L366.944 434.539L292.343 30.0164Z" fill="#E0E0E0"/>
<g opacity="0.5">
<path opacity="0.5" d="M289.355 37.9173L46.222 98.6134L118.301 489.462L361.434 428.766L289.355 37.9173Z" fill="url(#paint0_linear)"/>
</g>
<path d="M286.788 41.5669L49.8444 100.718L120.33 482.931L357.274 423.78L286.788 41.5669Z" fill="#FAFAFA"/>
<path d="M224.343 39.8233L106.799 69.1673L112.908 102.296L230.453 72.9517L224.343 39.8233Z" fill="url(#paint1_linear)"/>
<path d="M159.6 22.1384C150.525 24.4063 144.783 35.0061 146.78 45.8115C148.776 56.6169 157.745 63.551 166.803 61.283C175.86 59.015 181.62 48.4152 179.623 37.6098C177.627 26.8045 168.676 19.8704 159.6 22.1384ZM165.295 53.0402C163.377 53.5724 161.366 53.4281 159.519 52.6258C157.672 51.8234 156.072 50.3993 154.923 48.5349C153.774 46.6705 153.128 44.4503 153.067 42.1573C153.007 39.8642 153.535 37.6022 154.583 35.6594C155.632 33.7166 157.154 32.181 158.956 31.2485C160.757 30.3159 162.757 30.0285 164.699 30.4229C166.641 30.8174 168.439 31.8757 169.862 33.4632C171.286 35.0507 172.271 37.0953 172.692 39.3365C172.983 40.8016 173.022 42.3191 172.807 43.8018C172.593 45.2846 172.128 46.7034 171.441 47.9767C170.754 49.2501 169.857 50.3529 168.802 51.2219C167.748 52.0908 166.556 52.7088 165.295 53.0402V53.0402Z" fill="url(#paint2_linear)"/>
<path d="M222.843 38.7114L107.775 67.4373L113.615 99.1053L228.683 70.3793L222.843 38.7114Z" fill="#7CB496"/>
<path d="M159.6 22.1384C156.42 22.9326 153.513 24.8064 151.248 27.5227C148.982 30.2391 147.46 33.676 146.873 37.3988C146.287 41.1217 146.662 44.9633 147.952 48.4379C149.242 51.9125 151.389 54.8641 154.12 56.9194C156.852 58.9747 160.046 60.0413 163.299 59.9845C166.552 59.9278 169.717 58.75 172.394 56.6003C175.072 54.4506 177.141 51.4255 178.341 47.9074C179.541 44.3893 179.817 40.5363 179.134 36.8356C178.681 34.3782 177.817 32.0487 176.59 29.9801C175.363 27.9115 173.798 26.1443 171.984 24.7795C170.17 23.4148 168.143 22.4791 166.018 22.0259C163.893 21.5727 161.712 21.6109 159.6 22.1384V22.1384ZM165.042 51.6699C163.206 52.1282 161.295 51.9428 159.549 51.1371C157.804 50.3315 156.303 48.9417 155.237 47.1436C154.17 45.3455 153.586 43.2199 153.558 41.0355C153.53 38.8511 154.059 36.7061 155.079 34.8718C156.099 33.0374 157.563 31.5961 159.287 30.7301C161.011 29.8641 162.917 29.6124 164.764 30.0067C166.61 30.401 168.315 31.4236 169.663 32.9453C171.01 34.467 171.939 36.4193 172.333 38.5554C172.86 41.4193 172.389 44.4098 171.021 46.8692C169.654 49.3286 167.503 51.0554 165.042 51.6699V51.6699Z" fill="#7CB496"/>
<path d="M409.239 80.1051H151.874V493.834H409.239V80.1051Z" fill="#E0E0E0"/>
<g opacity="0.5">
<path opacity="0.5" d="M404.893 87.1008H156.226V486.845H404.893V87.1008Z" fill="url(#paint3_linear)"/>
</g>
<path d="M401.725 90.0471H159.388V480.959H401.725V90.0471Z" fill="white"/>
<path d="M340.985 73.0956H220.765V106.978H340.985V73.0956Z" fill="url(#paint4_linear)"/>
<path d="M280.874 40.0217C271.593 40.0217 264.067 48.9839 264.067 60.0428C264.067 71.1017 271.593 80.064 280.874 80.064C290.156 80.064 297.682 71.1017 297.682 60.0428C297.682 48.9839 290.156 40.0217 280.874 40.0217ZM280.874 71.5951C278.901 71.6495 276.959 71.0186 275.296 69.7828C273.632 68.547 272.323 66.7624 271.535 64.6569C270.747 62.5514 270.517 60.2205 270.873 57.9618C271.229 55.7031 272.156 53.6192 273.534 51.9761C274.913 50.3329 276.681 49.2052 278.614 48.7367C280.546 48.2683 282.554 48.4805 284.382 49.3463C286.21 50.212 287.775 51.6919 288.877 53.5972C289.979 55.5024 290.567 57.7465 290.568 60.0428C290.587 63.0609 289.578 65.9649 287.761 68.1196C285.944 70.2742 283.468 71.5041 280.874 71.5402V71.5951Z" fill="url(#paint5_linear)"/>
<path d="M339.718 71.643H222.031V104.032H339.718V71.643Z" fill="#7CB496"/>
<path d="M280.874 40.0217C277.621 40.0217 274.441 41.1441 271.736 43.2469C269.031 45.3497 266.923 48.3386 265.678 51.8354C264.433 55.3323 264.108 59.1802 264.742 62.8924C265.377 66.6047 266.943 70.0146 269.244 72.691C271.544 75.3674 274.475 77.19 277.666 77.9285C280.856 78.6669 284.163 78.2879 287.169 76.8394C290.174 75.391 292.743 72.9381 294.551 69.791C296.358 66.6439 297.323 62.9439 297.323 59.1589C297.323 54.0834 295.59 49.2158 292.505 45.6269C289.42 42.0379 285.237 40.0217 280.874 40.0217ZM280.874 70.2041C278.998 70.2014 277.165 69.552 275.606 68.3379C274.047 67.1238 272.832 65.3995 272.115 63.3826C271.397 61.3657 271.209 59.1467 271.575 57.0058C271.941 54.8649 272.844 52.8981 274.169 51.3537C275.495 49.8092 277.184 48.7565 279.024 48.3283C280.864 47.9002 282.771 48.1158 284.506 48.948C286.24 49.7802 287.724 51.1916 288.769 53.0041C289.814 54.8165 290.375 56.9488 290.379 59.1315C290.379 60.5826 290.132 62.0192 289.654 63.3594C289.176 64.6996 288.475 65.917 287.593 66.9421C286.71 67.9672 285.662 68.7799 284.51 69.3337C283.357 69.8875 282.122 70.1717 280.874 70.1699V70.2041Z" fill="#7CB496"/>
<g opacity="0.5">
<path opacity="0.5" d="M268.101 0H265.887V14.615H268.101V0Z" fill="#47E6B1"/>
<path opacity="0.5" d="M273.278 8.59221V6.01595L260.716 6.01595V8.59221H273.278Z" fill="#47E6B1"/>
</g>
<path opacity="0.5" d="M80.4862 388.843C79.8754 388.534 79.3837 387.974 79.1047 387.27C78.8256 386.566 78.7786 385.768 78.9727 385.026C79.004 384.913 79.0238 384.796 79.0316 384.677V384.677C79.0492 384.338 78.9724 384.001 78.8126 383.716C78.6527 383.432 78.4184 383.214 78.1443 383.097C77.8701 382.979 77.5707 382.967 77.2903 383.063C77.01 383.159 76.7636 383.357 76.5876 383.629V383.629C76.5264 383.724 76.475 383.828 76.4345 383.937C76.1686 384.648 75.6875 385.22 75.0827 385.544C74.4778 385.869 73.7915 385.924 73.1543 385.698C73.0568 385.662 72.956 385.639 72.8539 385.629V385.629C72.5623 385.609 72.2727 385.698 72.0281 385.884C71.7835 386.07 71.5968 386.343 71.4957 386.662C71.3946 386.981 71.3845 387.329 71.4669 387.655C71.5492 387.982 71.7196 388.268 71.9529 388.473V388.473C72.035 388.544 72.1239 388.604 72.2179 388.651C72.8287 388.96 73.3204 389.52 73.5994 390.224C73.8785 390.928 73.9255 391.726 73.7314 392.468C73.7001 392.581 73.6803 392.698 73.6725 392.817C73.6549 393.156 73.7317 393.493 73.8916 393.778C74.0514 394.063 74.2857 394.28 74.5599 394.397C74.834 394.515 75.1334 394.527 75.4138 394.431C75.6942 394.335 75.9405 394.137 76.1165 393.865V393.865C76.1777 393.77 76.2291 393.666 76.2696 393.557C76.5355 392.846 77.0166 392.274 77.6215 391.95C78.2263 391.625 78.9126 391.57 79.5498 391.796C79.6473 391.833 79.7481 391.856 79.8502 391.865C80.1419 391.885 80.4314 391.796 80.676 391.61C80.9207 391.424 81.1073 391.151 81.2084 390.832C81.3095 390.513 81.3196 390.165 81.2372 389.839C81.1549 389.513 80.9845 389.226 80.7512 389.021V389.021C80.6692 388.95 80.5802 388.89 80.4862 388.843Z" fill="#FDD835"/>
<path opacity="0.5" d="M51.3176 71.1771C53.7667 71.1771 55.7521 68.8672 55.7521 66.0177C55.7521 63.1682 53.7667 60.8582 51.3176 60.8582C48.8685 60.8582 46.8831 63.1682 46.8831 66.0177C46.8831 68.8672 48.8685 71.1771 51.3176 71.1771Z" fill="#4D8AF0"/>
<path opacity="0.5" d="M4.43449 211.921C6.88359 211.921 8.86898 209.611 8.86898 206.762C8.86898 203.912 6.88359 201.602 4.43449 201.602C1.98539 201.602 0 203.912 0 206.762C0 209.611 1.98539 211.921 4.43449 211.921Z" fill="#47E6B1"/>
</g>
<defs>
<linearGradient id="paint0_linear" x1="239.864" y1="459.115" x2="143.788" y2="74.2569" gradientUnits="userSpaceOnUse">
<stop stop-color="#808080" stop-opacity="0.25"/>
<stop offset="0.54" stop-color="#808080" stop-opacity="0.12"/>
<stop offset="1" stop-color="#808080" stop-opacity="0.1"/>
</linearGradient>
<linearGradient id="paint1_linear" x1="64666" y1="-9797.4" x2="64263.3" y2="-11410.5" gradientUnits="userSpaceOnUse">
<stop stop-color="#808080" stop-opacity="0.25"/>
<stop offset="0.54" stop-color="#808080" stop-opacity="0.12"/>
<stop offset="1" stop-color="#808080" stop-opacity="0.1"/>
</linearGradient>
<linearGradient id="paint2_linear" x1="18882.7" y1="1117.52" x2="18320.9" y2="-1132.88" gradientUnits="userSpaceOnUse">
<stop stop-color="#808080" stop-opacity="0.25"/>
<stop offset="0.54" stop-color="#808080" stop-opacity="0.12"/>
<stop offset="1" stop-color="#808080" stop-opacity="0.1"/>
</linearGradient>
<linearGradient id="paint3_linear" x1="118621" y1="284117" x2="118621" y2="50902.6" gradientUnits="userSpaceOnUse">
<stop stop-color="#808080" stop-opacity="0.25"/>
<stop offset="0.54" stop-color="#808080" stop-opacity="0.12"/>
<stop offset="1" stop-color="#808080" stop-opacity="0.1"/>
</linearGradient>
<linearGradient id="paint4_linear" x1="57558.5" y1="5363.16" x2="57558.5" y2="3687.68" gradientUnits="userSpaceOnUse">
<stop stop-color="#808080" stop-opacity="0.25"/>
<stop offset="0.54" stop-color="#808080" stop-opacity="0.12"/>
<stop offset="1" stop-color="#808080" stop-opacity="0.1"/>
</linearGradient>
<linearGradient id="paint5_linear" x1="22680.5" y1="7103.08" x2="22680.5" y2="4763.01" gradientUnits="userSpaceOnUse">
<stop stop-color="#808080" stop-opacity="0.25"/>
<stop offset="0.54" stop-color="#808080" stop-opacity="0.12"/>
<stop offset="1" stop-color="#808080" stop-opacity="0.1"/>
</linearGradient>
<clipPath id="clip0">
<rect width="483" height="535" fill="white"/>
</clipPath>
</defs>
</svg>
