<svg width="32" height="32" viewBox="0 0 32 32" fill="none" xmlns="http://www.w3.org/2000/svg">
<path d="M25.9 0H5.5C2.5 0 0 2.5 0 5.5V10.6H4.10001V5.5C4.10001 4.8 4.7 4.1 5.5 4.1H25.9C26.6 4.1 27.3 4.7 27.3 5.5V10.6H31.4V5.5C31.4 2.4 28.9 0 25.9 0Z" fill="white"/>
<path d="M27.3 24.2999L24 21C23.6 20.6 23.1 20.3999 22.5 20.3999H5.5C4.8 20.3999 4.10001 19.8 4.10001 19V14.2H0V19C0 22 2.5 24.5 5.5 24.5H21.7L27.9 30.7C28.3 31.1 28.8 31.2999 29.4 31.2999C29.7 31.2999 29.9 31.2 30.2 31.1C31 30.8 31.5 30 31.5 29.2V14.2H27.4V24.2999H27.3Z" fill="white"/>
</svg>
